# Blender 4.3.2
# www.blender.org
mtllib Briefcase01.mtl
o Briefcase01.obj
v -0.128024 -0.040182 0.287793
v -0.128024 -0.040182 -0.287793
v 0.117440 -0.040182 -0.287793
v 0.117440 -0.040182 0.287793
v 0.107089 -0.047637 0.277443
v -0.117674 -0.047637 0.277443
v -0.117674 -0.047637 -0.277443
v 0.107089 -0.047637 -0.277443
v 0.117440 -0.045211 0.287793
v -0.128024 -0.045211 0.287793
v 0.107089 -0.045211 0.277443
v -0.117674 -0.045211 0.277443
v -0.128024 -0.045211 -0.287793
v -0.117674 -0.045211 -0.277443
v 0.117440 -0.045211 -0.287793
v 0.107089 -0.045211 -0.277443
v -0.128024 0.060075 -0.287793
v -0.128024 0.060075 0.287793
v 0.117440 0.060075 0.287793
v 0.117440 0.060075 -0.287793
v 0.107089 0.067531 -0.277443
v -0.117674 0.067531 -0.277443
v -0.117674 0.067531 0.277443
v 0.107089 0.067531 0.277443
v 0.117440 0.065104 -0.287793
v -0.128024 0.065104 -0.287793
v 0.107089 0.065104 -0.277443
v -0.117674 0.065104 -0.277443
v -0.128024 0.065104 0.287793
v -0.117674 0.065104 0.277443
v 0.117440 0.065104 0.287793
v 0.107089 0.065104 0.277443
v -0.188180 -0.040182 -0.278651
v -0.179038 -0.040182 -0.287793
v -0.179038 -0.040182 0.287793
v -0.188180 -0.040182 0.278651
v 0.179038 -0.040182 -0.287793
v 0.188180 -0.040182 -0.278651
v 0.188180 -0.040182 0.278651
v 0.179038 -0.040182 0.287793
v -0.179038 -0.013378 -0.287793
v -0.188180 -0.013378 -0.278651
v -0.188180 -0.013378 0.278651
v -0.179038 -0.013378 0.287793
v 0.188180 -0.013378 -0.278651
v 0.179038 -0.013378 -0.287793
v 0.179038 -0.013378 0.287793
v 0.188180 -0.013378 0.278651
v -0.188180 0.060075 0.278651
v -0.179038 0.060075 0.287793
v -0.179038 0.060075 -0.287793
v -0.188180 0.060075 -0.278651
v 0.179038 0.060075 0.287793
v 0.188180 0.060075 0.278651
v 0.188180 0.060075 -0.278651
v 0.179038 0.060075 -0.287793
v -0.179038 -0.010668 0.287793
v -0.188180 -0.010668 0.278651
v -0.188180 -0.010668 -0.278651
v -0.179038 -0.010668 -0.287793
v 0.188180 -0.010668 0.278651
v 0.179038 -0.010668 0.287793
v 0.179038 -0.010668 -0.287793
v 0.188180 -0.010668 -0.278651
v 0.188246 -0.009470 -0.124081
v 0.188246 -0.009470 -0.141349
v 0.188246 0.009977 -0.141349
v 0.188246 0.009977 -0.124081
v 0.188246 -0.009470 0.139326
v 0.188246 -0.009470 0.123069
v 0.188246 0.009977 0.123069
v 0.188246 0.009977 0.139326
v 0.192340 -0.009470 -0.124081
v 0.192340 -0.009470 -0.141349
v 0.192340 0.009977 -0.141349
v 0.192340 0.009977 -0.124081
v 0.192340 -0.009470 0.139326
v 0.192340 -0.009470 0.123069
v 0.192340 0.009977 0.123069
v 0.192340 0.009977 0.139326
v 0.188246 -0.009470 -0.100216
v 0.188246 -0.009470 -0.117484
v 0.188246 0.009977 -0.117484
v 0.188246 0.009977 -0.100216
v 0.188246 -0.009470 0.163191
v 0.188246 -0.009470 0.146934
v 0.188246 0.009977 0.146934
v 0.188246 0.009977 0.163191
v 0.192340 -0.009470 -0.100216
v 0.192340 -0.009470 -0.117484
v 0.192340 0.009977 -0.117484
v 0.192340 0.009977 -0.100216
v 0.192340 -0.009470 0.163191
v 0.192340 -0.009470 0.146934
v 0.192340 0.009977 0.146934
v 0.192340 0.009977 0.163191
v 0.188246 -0.009470 -0.147832
v 0.188246 -0.009470 -0.165100
v 0.188246 0.009977 -0.165100
v 0.188246 0.009977 -0.147832
v 0.188246 -0.009470 0.115574
v 0.188246 -0.009470 0.099318
v 0.188246 0.009977 0.099318
v 0.188246 0.009977 0.115574
v 0.192340 -0.009470 -0.147832
v 0.192340 -0.009470 -0.165100
v 0.192340 0.009977 -0.165100
v 0.192340 0.009977 -0.147832
v 0.192340 -0.009470 0.115574
v 0.192340 -0.009470 0.099318
v 0.192340 0.009977 0.099318
v 0.192340 0.009977 0.115574
v 0.188246 -0.009470 -0.066027
v 0.188246 -0.009470 -0.077348
v 0.188246 0.009977 -0.077348
v 0.188246 0.009977 -0.066027
v 0.188246 -0.009470 0.075438
v 0.188246 -0.009470 0.064781
v 0.188246 0.009977 0.064781
v 0.188246 0.009977 0.075438
v 0.227547 -0.002091 -0.064460
v 0.227547 0.009798 -0.064460
v 0.227547 -0.002091 0.063198
v 0.227547 0.009798 0.063198
v 0.236053 -0.002091 -0.075508
v 0.236053 0.009798 -0.075508
v 0.236053 -0.002091 0.073598
v 0.244796 -0.002091 0.063198
v 0.244796 0.009798 0.063198
v 0.236053 0.009798 0.073598
vn 0.8125 -0.4761 0.3365
vn 0.3366 -0.4761 0.8124
vn 0.5774 -0.5774 0.5774
vn 0.5774 -0.5774 -0.5774
vn 0.3365 -0.4761 -0.8125
vn 0.8124 -0.4761 -0.3366
vn -0.6779 -0.6779 0.2846
vn -0.4083 -0.8164 -0.4083
vn -0.4082 -0.8166 -0.4082
vn -0.6883 -0.3772 0.6196
vn 0.4082 -0.8166 0.4082
vn 0.4083 -0.8164 0.4084
vn -0.8956 0.1581 0.4157
vn -0.8510 0.0413 -0.5236
vn -0.8124 -0.4761 -0.3366
vn -0.8124 -0.4761 0.3365
vn 0.8957 -0.1581 -0.4157
vn 0.9115 -0.1634 0.3775
vn -0.4798 -0.0185 -0.8772
vn 0.2858 -0.0378 -0.9575
vn 0.4157 -0.1581 -0.8957
vn -0.3633 -0.1076 -0.9254
vn -0.5774 -0.5774 0.5774
vn -0.3365 -0.4761 0.8125
vn -0.1157 -0.6556 -0.7462
vn -0.5774 -0.5774 -0.5774
vn -0.9273 0.1581 -0.3394
vn 0.3455 -0.1024 0.9328
vn -0.3633 0.1076 0.9254
vn 0.5038 -0.4351 -0.7462
vn 0.6779 -0.2846 -0.6779
vn 0.8125 0.4761 -0.3365
vn 0.3366 0.4761 -0.8124
vn 0.5774 0.5774 -0.5774
vn 0.5774 0.5774 0.5774
vn 0.3365 0.4761 0.8125
vn 0.8124 0.4761 0.3366
vn -0.8510 -0.0413 0.5236
vn -0.8124 0.4761 0.3366
vn -0.8124 0.4761 -0.3365
vn 0.8956 0.1581 0.4157
vn 0.9115 0.1634 -0.3775
vn -0.5774 0.5774 -0.5774
vn -0.3365 0.4761 -0.8125
vn -0.1157 0.6556 0.7462
vn -0.5774 0.5774 0.5774
vn -0.2723 0.6804 -0.6804
vn 0.4156 0.4156 -0.8090
vn -0.4798 0.0185 0.8772
vn 0.5236 -0.0413 0.8510
vn 0.2846 0.6779 0.6779
vn -0.6804 0.2723 0.6804
vn -0.4082 0.8166 0.4082
vn -0.3135 0.9405 -0.1310
vn 0.3730 0.6561 -0.6561
vn 0.5038 0.4351 0.7462
vn -0.0000 -0.7071 0.7071
vn -0.0000 -0.7071 -0.7071
vn -0.0000 0.7071 -0.7071
vn -0.0000 0.7071 0.7071
vn 0.3999 -0.4590 0.7934
vn 0.6769 -0.7048 0.2123
vn 0.6600 0.7200 0.2145
vn 0.3844 0.4865 0.7845
vn 0.5966 0.4511 -0.6637
vn 0.6739 -0.5560 -0.4865
vn 0.0285 0.6991 -0.7144
vn 0.0681 -0.7321 -0.6778
vn 0.0413 -0.7957 0.6043
vn -0.5454 -0.5661 0.6181
vn -0.5866 0.5792 0.5661
vn -0.0119 0.7168 0.6972
vn -0.0165 0.7246 -0.6890
vn -0.5867 0.5792 -0.5659
vn -0.5455 -0.5661 -0.6180
vn 0.0830 -0.7520 -0.6539
vn 0.0681 -0.7321 0.6778
vn 0.0285 0.6991 0.7144
vt 0.132345 0.696739
vt 0.124542 0.704542
vt 0.071968 0.704542
vt 0.071968 0.213278
vt 0.124542 0.213278
vt 0.132345 0.221080
vt 0.995050 0.023992
vt 0.004950 0.023992
vt 0.022754 0.026533
vt 0.977246 0.026533
vt 0.977246 0.081711
vt 0.995050 0.084252
vt 0.833821 0.696739
vt 0.833821 0.221080
vt 0.856698 0.221080
vt 0.856698 0.696739
vt 0.402743 0.970456
vt 0.009637 0.970456
vt 0.009637 0.951549
vt 0.402743 0.951549
vt 0.268663 0.828079
vt 0.016085 0.828079
vt 0.009637 0.775003
vt 0.262214 0.775003
vt 0.070047 0.704542
vt 0.026506 0.704542
vt 0.018704 0.696739
vt 0.018704 0.221080
vt 0.026506 0.213278
vt 0.070047 0.213278
vt 0.918999 0.221080
vt 0.918999 0.213278
vt 0.833821 0.213278
vt 0.262214 0.898474
vt 0.009637 0.898474
vt 0.009637 0.879567
vt 0.218765 0.879567
vt 0.262214 0.879567
vt 0.022754 0.081711
vt 0.004950 0.084252
vt 0.981296 0.696739
vt 0.973494 0.704542
vt 0.920920 0.704542
vt 0.920920 0.213278
vt 0.973494 0.213278
vt 0.981296 0.221080
vt 0.918999 0.696739
vt 0.858619 0.696739
vt 0.858619 0.221080
vt 0.016085 0.900061
vt 0.409192 0.900061
vt 0.409192 0.949962
vt 0.016085 0.949962
vt 0.185609 0.704542
vt 0.142069 0.704542
vt 0.134266 0.696739
vt 0.134266 0.221080
vt 0.142069 0.213278
vt 0.185609 0.213278
vt 0.268663 0.877979
vt 0.004950 0.022118
vt 0.004950 0.077523
vt 0.059535 0.877979
vt 0.016085 0.877979
vt 0.009637 0.776591
vt 0.262214 0.776591
vt 0.262214 0.826491
vt 0.995050 0.077523
vt 0.995050 0.022118
vt 0.045621 0.826491
vt 0.009637 0.826491
vt 0.977246 0.024454
vt 0.022754 0.024454
vt 0.022754 0.075187
vt 0.977246 0.075187
vt 0.856698 0.213278
vt 0.856698 0.704542
vt 0.833821 0.704542
vt 0.268663 0.879567
vt 0.268663 0.898474
vt 0.409192 0.951549
vt 0.409192 0.970456
vt 0.918999 0.704542
vt 0.858619 0.704542
vt 0.858619 0.213278
vt 0.009637 0.877979
vt 0.009637 0.828079
vt 0.009637 0.949962
vt 0.009637 0.900061
vt 0.312830 0.019504
vt 0.300574 0.103905
vt 0.687170 0.104344
vt 0.699426 0.019943
vt 0.286561 0.032785
vt 0.256857 0.032785
vt 0.739663 0.032785
vt 0.711698 0.032785
vt 0.286561 0.025743
vt 0.256857 0.025743
vt 0.739663 0.025743
vt 0.711698 0.025743
vt 0.327613 0.032785
vt 0.297909 0.032785
vt 0.780714 0.032785
vt 0.752750 0.032785
vt 0.327613 0.025743
vt 0.297909 0.025743
vt 0.780714 0.025743
vt 0.752750 0.025743
vt 0.245705 0.032785
vt 0.216002 0.032785
vt 0.698806 0.032785
vt 0.670843 0.032785
vt 0.245705 0.025743
vt 0.216002 0.025743
vt 0.698806 0.025743
vt 0.670843 0.025743
vt 0.626600 0.107979
vt 0.608711 0.123018
vt 0.370114 0.107979
vt 0.366949 0.025743
vt 0.386423 0.025743
vt 0.389119 0.093347
vt 0.611434 0.025743
vt 0.608711 0.093347
vt 0.629765 0.025743
vt 0.226230 0.756097
vt 0.262214 0.756097
vt 0.009637 0.756097
s 1
usemtl Default
f 39/1/1 40/2/2 4/3/3 3/4/4 37/5/5 38/6/6
f 10/7/7 13/8/8 14/9/9 12/10/10 11/11/11 9/12/12
f 43/13/13 42/14/14 33/15/15 36/16/16
f 45/17/17 48/18/18 39/19/1 38/20/6
f 60/21/19 63/22/20 46/23/21 41/24/22
f 1/25/23 35/26/24 36/27/16 33/28/15 34/29/25 2/30/26
f 59/31/27 60/32/19 41/33/22 42/14/14
f 47/34/28 44/35/29 35/36/24 1/7/23 10/7/7 9/12/12 4/37/3 40/38/2
f 6/10/23 5/11/3 11/11/11 12/10/10
f 1/7/23 2/8/26 13/8/8 10/7/7
f 7/9/26 6/10/23 12/10/10 14/9/9
f 8/39/4 7/9/26 14/9/9 16/39/30
f 3/40/4 4/12/3 9/12/12 15/40/31
f 5/11/3 8/39/4 16/39/30 11/11/11
f 55/41/32 56/42/33 20/43/34 19/44/35 53/45/36 54/46/37
f 59/31/27 58/47/38 49/48/39 52/49/40
f 15/40/31 9/12/12 11/11/11 16/39/30 14/9/9 13/8/8
f 61/50/41 64/51/42 55/52/32 54/53/37
f 17/54/43 51/55/44 52/56/40 49/57/39 50/58/45 18/59/46
f 63/22/20 60/21/19 51/60/44 17/61/43 26/61/47 25/62/48 20/63/34 56/64/33
f 57/65/49 62/66/50 53/67/36 19/68/35 31/68/51 29/69/52 18/70/46 50/71/45
f 26/61/47 29/69/52 30/72/53 28/73/54
f 22/73/43 21/74/34 27/74/55 28/73/54
f 17/61/43 18/69/46 29/69/52 26/61/47
f 23/72/46 22/73/43 28/73/54 30/72/53
f 24/75/35 23/72/46 30/72/53 32/75/56
f 19/68/35 20/62/34 25/62/48 31/68/51
f 21/74/34 24/75/35 32/75/56 27/74/55
f 41/33/22 34/76/25 33/15/15 42/14/14
f 35/77/24 44/78/29 43/13/13 36/16/16
f 39/79/1 48/80/18 47/34/28 40/38/2
f 37/81/5 46/82/21 45/17/17 38/20/6
f 57/83/49 50/84/45 49/48/39 58/47/38
f 51/85/44 60/32/19 59/31/27 52/49/40
f 55/86/32 64/87/42 63/22/20 56/64/33
f 53/88/36 62/89/50 61/50/41 54/53/37
f 6/90/23 7/91/26 8/92/4 5/93/3
f 24/93/35 21/92/34 22/91/43 23/90/46
f 73/94/3 74/95/4 75/95/34 76/94/35
f 77/96/3 78/97/4 79/97/34 80/96/35
f 65/98/57 66/99/58 74/95/4 73/94/3
f 66/99/58 67/99/59 75/95/34 74/95/4
f 67/99/59 68/98/60 76/94/35 75/95/34
f 68/98/60 65/98/57 73/94/3 76/94/35
f 69/100/57 70/101/58 78/97/4 77/96/3
f 70/101/58 71/101/59 79/97/34 78/97/4
f 71/101/59 72/100/60 80/96/35 79/97/34
f 72/100/60 69/100/57 77/96/3 80/96/35
f 89/102/3 90/103/4 91/103/34 92/102/35
f 93/104/3 94/105/4 95/105/34 96/104/35
f 81/106/57 82/107/58 90/103/4 89/102/3
f 82/107/58 83/107/59 91/103/34 90/103/4
f 83/107/59 84/106/60 92/102/35 91/103/34
f 84/106/60 81/106/57 89/102/3 92/102/35
f 85/108/57 86/109/58 94/105/4 93/104/3
f 86/109/58 87/109/59 95/105/34 94/105/4
f 87/109/59 88/108/60 96/104/35 95/105/34
f 88/108/60 85/108/57 93/104/3 96/104/35
f 105/110/3 106/111/4 107/111/34 108/110/35
f 109/112/3 110/113/4 111/113/34 112/112/35
f 97/114/57 98/115/58 106/111/4 105/110/3
f 98/115/58 99/115/59 107/111/34 106/111/4
f 99/115/59 100/114/60 108/110/35 107/111/34
f 100/114/60 97/114/57 105/110/3 108/110/35
f 101/116/57 102/117/58 110/113/4 109/112/3
f 102/117/58 103/117/59 111/113/34 110/113/4
f 103/117/59 104/116/60 112/112/35 111/113/34
f 104/116/60 101/116/57 109/112/3 112/112/35
f 127/118/61 128/119/62 129/119/63 130/118/64
f 126/120/65 129/119/63 128/119/62 125/120/66
f 115/121/67 126/120/65 125/120/66 114/121/68
f 113/122/69 121/123/70 122/123/71 116/122/72
f 119/124/73 124/125/74 123/125/75 118/124/76
f 117/126/77 127/118/61 130/118/64 120/126/78
f 118/124/76 123/125/75 121/123/70 113/122/69 114/121/68 125/120/66 128/119/62 127/118/61 117/126/77
f 122/123/71 124/125/74 119/124/73 120/126/78 130/118/64 129/119/63 126/120/65 115/121/67 116/122/72
f 31/68/51 25/62/48 26/61/47 28/73/54 27/74/55 32/75/56 30/72/53 29/69/52
f 3/40/4 15/40/31 13/8/8 2/127/26 34/128/25 41/24/22 46/23/21 37/129/5
f 122/123/71 121/123/70 123/125/75 124/125/74
f 63/22/20 64/87/42 45/17/17 46/82/21
f 64/51/42 61/50/41 48/18/18 45/17/17
f 61/50/41 62/89/50 47/34/28 48/80/18
f 62/66/50 57/65/49 44/35/29 47/34/28
f 57/83/49 58/47/38 43/13/13 44/78/29
f 58/47/38 59/31/27 42/14/14 43/13/13
